<?xml version="1.0" encoding="utf-8"?>
<!-- Generator: Adobe Illustrator 16.0.0, SVG Export Plug-In . SVG Version: 6.00 Build 0)  -->
<!DOCTYPE svg PUBLIC "-//W3C//DTD SVG 1.1//EN" "http://www.w3.org/Graphics/SVG/1.1/DTD/svg11.dtd">
<svg version="1.1" id="Layer_1_2_" xmlns="http://www.w3.org/2000/svg" xmlns:xlink="http://www.w3.org/1999/xlink" x="0px" y="0px"
	 width="595.279px" height="614px" viewBox="0 0 595.279 614" enable-background="new 0 0 595.279 614" xml:space="preserve">
<g>
	<g>
		<path fill="#D92F3A" d="M513.926,139.681c-1.984,0-5.953-1.984-7.938-1.984c-3.968,0-5.952,0-7.937,1.984l-49.606,49.606
			c0,1.984-1.983,5.953-1.983,7.938v396.854c0,5.952,3.969,9.921,9.921,9.921h79.371c5.951,0,9.921-3.969,9.921-9.921V177.382
			c0-3.969,0-5.953-1.984-7.937L513.926,139.681z M525.83,584.156h-59.526V201.193l39.685-39.686l19.843,19.842L525.83,584.156
			L525.83,584.156z M123.025,326.202c-3.969,0-7.938,0-11.905,3.968l-31.75,31.749l-33.731-33.732
			c-1.984-1.983-5.952-3.969-9.922-1.983c-3.969,1.985-5.952,5.952-5.952,9.921v257.955c0,5.952,3.969,9.921,9.922,9.921h79.37
			c5.952,0,9.922-3.969,9.922-9.921V336.123C128.978,332.154,126.993,328.187,123.025,326.202z M109.135,584.156H49.607
			l1.983-224.223l21.827,21.827c3.969,3.969,9.921,3.969,13.891,0l21.826-21.827V584.156z M571.469,10.703
			c-1.984-1.984-3.969-1.984-5.953-1.984h-69.449c-3.969,0-7.938,5.953-9.921,7.938c-1.984,1.984,0,7.937,1.983,9.921l31.749,31.749
			L416.696,163.492l-51.591-53.575c-1.984-1.984-5.952-1.984-7.937-1.984c-3.97,0-5.953,1.984-5.953,3.968l-73.419,91.277
			l-51.591-53.576c-1.983-1.984-5.952-1.984-7.937-1.984c-3.97,0-5.953,1.984-7.938,3.969L79.37,302.391L25.795,250.8
			c-3.968-3.969-9.921-3.969-13.89,0c-3.969,3.968-3.969,9.921,0,13.89l59.528,59.528c1.983,0,5.951,1.984,7.937,1.984
			c3.969,0,5.953-1.984,7.938-3.969L218.27,171.429l51.591,53.575c1.984,1.984,5.952,1.984,7.937,1.984
			c3.97,0,5.953-1.984,5.953-3.969l73.419-91.275l51.591,53.575c3.969,3.968,9.921,3.968,13.89,0L533.769,72.216l33.732,33.732
			c1.983,0,5.952,1.984,7.938,1.984s1.984,0,5.952,0c3.969-1.984,5.953-5.953,5.953-9.921V18.64
			C587.344,12.687,577.423,6.735,571.469,10.703z M565.516,74.2l-45.638-45.638h45.638V74.2z M365.105,169.445
			c-1.984-1.984-5.952-1.984-7.937-1.984c-3.97,0-5.953,1.984-7.938,3.968l-39.686,59.528c-1.984,1.984-1.984,3.968-1.984,5.953
			v357.168c0,5.952,3.969,9.921,9.922,9.921h79.371c5.952,0,9.921-3.969,9.921-9.921V217.066c0-3.967,0-5.952-1.984-7.937
			L365.105,169.445z M386.932,584.156h-59.528V240.878l31.749-47.623l27.779,27.78V584.156L386.932,584.156z M265.892,256.752
			c0-3.968,0-5.953-1.984-7.938l-39.686-39.686c-3.969-3.968-9.922-3.968-13.891,0l-39.686,39.686c0,1.984-1.984,5.953-1.984,7.938
			v337.326c0,5.952,3.969,9.921,9.922,9.921h79.37c5.953,0,9.922-3.969,7.938-9.921V256.752L265.892,256.752z M248.033,584.156
			h-59.528V260.721l29.766-29.764l29.764,29.764L248.033,584.156L248.033,584.156z"/>
	</g>
</g>
</svg>
