<?xml version="1.0" encoding="utf-8"?>
<!-- Generator: Adobe Illustrator 16.0.0, SVG Export Plug-In . SVG Version: 6.00 Build 0)  -->
<!DOCTYPE svg PUBLIC "-//W3C//DTD SVG 1.1//EN" "http://www.w3.org/Graphics/SVG/1.1/DTD/svg11.dtd">
<svg version="1.1" id="Layer_1_2_" xmlns="http://www.w3.org/2000/svg" xmlns:xlink="http://www.w3.org/1999/xlink" x="0px" y="0px"
	 width="595.279px" height="614px" viewBox="0 0 595.279 614" enable-background="new 0 0 595.279 614" xml:space="preserve">
<g display="none">
	<g display="inline">
		<path fill="#0AB6D1" d="M513.926,254.267c-1.984,0-5.953-1.984-7.938-1.984c-3.968,0-5.952,0-7.937,1.984l-49.606,49.606
			c0,1.984-1.983,5.953-1.983,7.938v396.854c0,5.952,3.969,9.921,9.921,9.921h79.371c5.951,0,9.921-3.969,9.921-9.921V291.968
			c0-3.969,0-5.953-1.984-7.937L513.926,254.267z M525.83,698.742h-59.526V315.779l39.685-39.686l19.843,19.842L525.83,698.742
			L525.83,698.742z M123.025,440.788c-3.969,0-7.938,0-11.905,3.968l-31.75,31.749l-33.731-33.732
			c-1.984-1.983-5.952-3.969-9.922-1.983c-3.969,1.985-5.952,5.952-5.952,9.921v257.955c0,5.952,3.969,9.921,9.922,9.921h79.37
			c5.952,0,9.922-3.969,9.922-9.921V450.709C128.978,446.74,126.993,442.772,123.025,440.788z M109.135,698.742H49.607
			l1.983-224.223l21.827,21.827c3.969,3.969,9.921,3.969,13.891,0l21.826-21.827V698.742z M571.469,125.289
			c-1.984-1.984-3.969-1.984-5.953-1.984h-69.449c-3.969,0-7.938,5.953-9.921,7.938c-1.984,1.984,0,7.937,1.983,9.921l31.749,31.749
			L416.696,278.078l-51.591-53.575c-1.984-1.984-5.952-1.984-7.937-1.984c-3.97,0-5.953,1.984-5.953,3.968l-73.419,91.277
			l-51.591-53.576c-1.983-1.984-5.952-1.984-7.937-1.984c-3.97,0-5.953,1.984-7.938,3.969L79.37,416.977l-53.575-51.591
			c-3.968-3.969-9.921-3.969-13.89,0c-3.969,3.968-3.969,9.921,0,13.89l59.528,59.528c1.983,0,5.951,1.984,7.937,1.984
			c3.969,0,5.953-1.984,7.938-3.969L218.27,286.015l51.591,53.575c1.984,1.984,5.952,1.984,7.937,1.984
			c3.97,0,5.953-1.984,5.953-3.969l73.419-91.275l51.591,53.575c3.969,3.968,9.921,3.968,13.89,0l111.119-113.103l33.732,33.732
			c1.983,0,5.952,1.984,7.938,1.984s1.984,0,5.952,0c3.969-1.984,5.953-5.953,5.953-9.921v-79.371
			C587.344,127.273,577.423,121.321,571.469,125.289z M565.516,188.786l-45.638-45.638h45.638V188.786z M365.105,284.031
			c-1.984-1.984-5.952-1.984-7.937-1.984c-3.97,0-5.953,1.984-7.938,3.968l-39.686,59.528c-1.984,1.984-1.984,3.968-1.984,5.953
			v357.168c0,5.952,3.969,9.921,9.922,9.921h79.371c5.952,0,9.921-3.969,9.921-9.921V331.652c0-3.967,0-5.952-1.984-7.937
			L365.105,284.031z M386.932,698.742h-59.528V355.464l31.749-47.623l27.779,27.78V698.742L386.932,698.742z M265.892,371.338
			c0-3.968,0-5.953-1.984-7.938l-39.686-39.686c-3.969-3.968-9.922-3.968-13.891,0L170.646,363.4c0,1.984-1.984,5.953-1.984,7.938
			v337.326c0,5.952,3.969,9.921,9.922,9.921h79.37c5.953,0,9.922-3.969,7.938-9.921V371.338L265.892,371.338z M248.033,698.742
			h-59.528V375.307l29.766-29.764l29.764,29.764L248.033,698.742L248.033,698.742z"/>
	</g>
</g>
<g>
	<g>
		<path fill="#D92F3A" d="M538.318,597.557H94.106c-5.794,0-9.657-3.861-9.657-9.656V336.824c0-5.795,3.863-9.656,9.657-9.656
			h444.212c5.794,0,9.657,3.861,9.657,9.656V587.9C547.975,593.693,544.112,597.557,538.318,597.557z M103.761,578.244H528.66
			V346.48H103.761V578.244z"/>
	</g>
	<g>
		<path fill="#D92F3A" d="M576.945,346.48H74.792c-1.931,0-5.794-1.93-7.726-3.861c-1.933-1.932-1.933-3.863-1.933-5.795v-17.383
			c0-5.795,5.794-9.654,9.657-9.654c5.794,0,9.657,3.859,9.657,9.654v7.727h482.84v-57.941H123.076
			c-5.794,0-9.656-3.863-9.656-9.656c0-5.795,3.862-9.657,9.656-9.657h453.869c5.794,0,9.656,3.862,9.656,9.657v77.253
			C586.601,342.619,582.739,346.48,576.945,346.48z"/>
	</g>
	<g>
		<path fill="#D92F3A" d="M65.135,327.168c-32.833,0-57.939-25.109-57.939-57.941c0-32.834,25.106-57.941,57.939-57.941
			c32.834,0,57.941,25.107,57.941,57.941C123.076,302.059,97.969,327.168,65.135,327.168z M65.135,230.599
			c-21.244,0-38.626,17.382-38.626,38.628c0,21.244,17.382,38.626,38.626,38.626c21.245,0,38.627-17.382,38.627-38.626
			C103.761,247.981,86.38,230.599,65.135,230.599z"/>
	</g>
	<g>
		<path fill="#D92F3A" d="M123.076,255.708c-3.863,0-7.726-1.932-9.656-5.794c-1.931-5.794,0-9.657,5.793-11.589l411.38-142.919
			L513.21,41.327L68.998,201.629l1.932,1.932c3.863,3.862,3.863,9.656,0,13.52c-3.862,3.861-9.655,3.861-13.519,0l-11.588-11.588
			c-1.933-1.933-3.863-5.795-3.863-9.657s3.863-5.794,7.725-5.794L515.143,18.15c1.93,0,5.793,0,7.725,0
			c1.932,1.932,3.863,3.863,5.794,5.794l23.176,73.392c1.933,5.794-1.931,9.657-5.793,11.588L125.007,255.708H123.076z"/>
	</g>
	<g>
		<path fill="#D92F3A" d="M150.115,342.619c-1.932,0-3.863,0-5.794-1.934c-3.863-3.861-3.863-9.656,0-13.52l67.598-69.529
			c3.863-3.861,9.657-3.861,13.52,0c3.862,3.863,3.862,9.657,0,13.52l-67.598,69.529
			C153.977,340.688,152.046,342.619,150.115,342.619z"/>
	</g>
	<g>
		<path fill="#D92F3A" d="M238.958,346.48c-1.932,0-5.794,0-5.794-1.93c-3.863-3.863-3.863-9.658,0-13.521l69.528-71.46
			c3.862-3.862,9.657-3.862,13.52,0c3.863,3.862,3.863,9.658,0,13.521l-69.529,71.461
			C244.751,344.551,240.887,346.48,238.958,346.48z"/>
	</g>
	<g>
		<path fill="#D92F3A" d="M335.525,346.48c-1.931,0-5.794,0-7.727-1.93c-3.861-3.863-3.861-9.658,0-13.521l73.393-75.323
			c3.863-3.863,9.656-3.863,13.52,0c3.864,3.862,3.863,9.657,0,13.521l-73.392,75.324
			C341.319,344.551,337.456,346.48,335.525,346.48z"/>
	</g>
	<g>
		<path fill="#D92F3A" d="M432.093,346.48c-1.932,0-5.793,0-5.793-1.93c-3.863-3.863-3.863-9.658,0-13.521l69.527-69.528
			c3.863-3.863,9.657-3.863,13.521,0c3.862,3.862,3.862,9.657,0,13.519l-69.528,69.531
			C437.887,344.551,434.024,346.48,432.093,346.48z"/>
	</g>
	<g>
		<path fill="#D92F3A" d="M528.661,346.48c-1.931,0-5.794,0-7.726-1.93c-3.863-3.863-3.863-9.658,0-13.521l46.354-46.353
			c3.861-3.861,9.656-3.861,13.521,0c3.861,3.863,3.861,9.657,0,13.52l-46.354,46.353
			C534.455,344.551,530.593,346.48,528.661,346.48z"/>
	</g>
	<g>
		<path fill="#D92F3A" d="M192.604,232.53c-1.932,0-3.863,0-5.793-1.932l-69.529-48.284c-5.793-3.863-5.793-9.657-3.862-13.52
			c3.862-3.862,9.656-5.794,13.521-1.931l69.528,48.284c3.863,3.863,5.794,9.657,1.932,13.521
			C198.399,230.599,194.536,232.53,192.604,232.53z"/>
	</g>
	<g>
		<path fill="#D92F3A" d="M285.31,195.835c-1.933,0-3.863,0-5.795-1.932l-69.528-42.49c-3.863-1.931-5.793-9.657-3.863-13.519
			c3.863-3.863,9.657-5.794,15.452-3.863l69.529,42.49c3.861,3.863,5.793,9.657,3.861,15.452
			C293.035,193.903,289.173,195.835,285.31,195.835z"/>
	</g>
	<g>
		<path fill="#D92F3A" d="M366.427,163.002c-1.933,0-3.863,0-5.796-1.932l-69.527-42.49c-3.863-1.931-5.794-9.657-3.863-13.519
			c1.931-3.863,9.656-5.794,13.521-3.863l69.527,42.49c3.863,1.931,5.794,9.657,3.863,13.52
			C374.153,161.07,370.289,163.002,366.427,163.002z"/>
	</g>
	<g>
		<path fill="#D92F3A" d="M457.201,135.963c-1.932,0-3.863,0-5.794-1.932l-69.529-42.49c-3.862-1.931-5.794-9.657-3.862-13.519
			c1.932-3.863,9.657-5.794,13.521-3.863l69.529,42.49c3.861,1.931,5.793,9.657,3.861,13.52
			C462.996,134.031,459.132,135.963,457.201,135.963z"/>
	</g>
	<g>
		<path fill="#D92F3A" d="M532.524,101.198c-1.932,0-3.863,0-5.794-1.932l-69.529-42.49c-3.863-1.932-5.794-9.657-3.863-13.52
			c1.933-3.863,9.658-5.794,13.521-3.863l69.529,42.49c3.861,1.932,5.794,9.657,3.861,13.52
			C538.318,99.268,536.386,101.198,532.524,101.198z"/>
	</g>
	<g>
		<path fill="#D92F3A" d="M171.359,500.99h-19.313c-5.793,0-9.656-3.863-9.656-9.658c0-5.793,3.863-9.656,9.656-9.656h19.313
			c5.794,0,9.657-3.863,9.657-13.52c0-7.727-5.794-15.451-13.52-15.451h-15.452c-5.793,0-9.656-3.861-9.656-9.656v-48.283
			c0-5.795,3.863-9.658,9.656-9.658h38.627c5.794,0,9.657,3.863,9.657,9.658c0,5.793-3.863,9.656-9.657,9.656h-28.97v28.971h5.794
			c17.382,0,32.833,15.451,32.833,34.766C200.329,487.471,188.742,500.99,171.359,500.99z"/>
	</g>
	<g>
		<path fill="#D92F3A" d="M267.927,500.99c-5.794,0-9.656-3.863-9.656-9.658v-9.656h-28.971c-3.862,0-5.794-1.932-7.725-3.863
			c-1.932-1.932-1.932-5.793,0-9.654l38.626-77.256c1.931-3.861,7.726-5.795,13.52-3.861c3.862,1.93,5.793,7.725,3.862,13.518
			l-32.833,61.807h23.176c5.794,0,9.657,3.861,9.657,9.654v19.314C277.584,497.127,273.721,500.99,267.927,500.99z"/>
	</g>
	<g>
		<path fill="#D92F3A" d="M267.927,539.617H152.046c-5.793,0-9.656-3.863-9.656-9.658c0-5.793,3.863-9.656,9.656-9.656h115.882
			c5.794,0,9.657,3.863,9.657,9.656C277.584,535.754,273.721,539.617,267.927,539.617z"/>
	</g>
	<g>
		<path fill="#D92F3A" d="M480.377,423.734H345.181c-5.793,0-9.656-3.861-9.656-9.656c0-5.793,3.863-9.656,9.656-9.656h135.195
			c5.793,0,9.656,3.863,9.656,9.656C490.033,419.873,486.17,423.734,480.377,423.734z"/>
	</g>
	<g>
		<path fill="#D92F3A" d="M480.377,481.676H345.181c-5.793,0-9.656-3.863-9.656-9.656c0-5.795,3.863-9.656,9.656-9.656h135.195
			c5.793,0,9.656,3.861,9.656,9.656C490.033,477.812,486.17,481.676,480.377,481.676z"/>
	</g>
	<g>
		<path fill="#D92F3A" d="M480.377,539.617H345.181c-5.793,0-9.656-3.863-9.656-9.658c0-5.793,3.863-9.656,9.656-9.656h135.195
			c5.793,0,9.656,3.863,9.656,9.656C490.034,535.754,486.17,539.617,480.377,539.617z"/>
	</g>
</g>
</svg>
